<?xml version="1.0" encoding="UTF-8" standalone="no"?><svg xmlns="http://www.w3.org/2000/svg" xmlns:xlink="http://www.w3.org/1999/xlink" contentScriptType="application/ecmascript" contentStyleType="text/css" height="868px" preserveAspectRatio="none" style="width:989px;height:868px;" version="1.1" viewBox="0 0 989 868" width="989px" zoomAndPan="magnify"><defs/><g><rect fill="#C2F0FF" height="843.5156" style="stroke: #C2F0FF; stroke-width: 1.0;" width="226" x="15" y="12.7451"/><ellipse cx="129" cy="48.6982" fill="#000000" rx="10" ry="10" style="stroke: none; stroke-width: 1.0;"/><rect fill="#FEFECE" height="33.9688" rx="12.5" ry="12.5" style="stroke: #A80036; stroke-width: 1.5;" width="124" x="67" y="78.6982"/><text fill="#000000" font-family="sans-serif" font-size="12" lengthAdjust="spacingAndGlyphs" textLength="104" x="77" y="99.8369">App instantiated</text><rect fill="#FEFECE" height="33.9688" rx="12.5" ry="12.5" style="stroke: #A80036; stroke-width: 1.5;" width="151" x="53.5" y="132.667"/><text fill="#000000" font-family="sans-serif" font-size="12" lengthAdjust="spacingAndGlyphs" textLength="131" x="63.5" y="153.8057">Routes configuration</text><rect fill="#FEFECE" height="33.9688" rx="12.5" ry="12.5" style="stroke: #A80036; stroke-width: 1.5;" width="216" x="21" y="186.6357"/><text fill="#000000" font-family="sans-serif" font-size="12" lengthAdjust="spacingAndGlyphs" textLength="196" x="31" y="207.7744">Service container configuration</text><rect fill="#FEFECE" height="33.9688" rx="12.5" ry="12.5" style="stroke: #A80036; stroke-width: 1.5;" width="60" x="99" y="240.6045"/><text fill="#000000" font-family="sans-serif" font-size="12" lengthAdjust="spacingAndGlyphs" textLength="40" x="109" y="261.7432">start()</text><line style="stroke: #000000; stroke-width: 2.0;" x1="15" x2="15" y1="12.7451" y2="856.2607"/><rect fill="#FAEBD7" height="843.5156" style="stroke: #FAEBD7; stroke-width: 1.0;" width="201" x="241" y="12.7451"/><rect fill="#FEFECE" height="33.9688" rx="12.5" ry="12.5" style="stroke: #A80036; stroke-width: 1.5;" width="165" x="260" y="294.5732"/><text fill="#000000" font-family="sans-serif" font-size="12" lengthAdjust="spacingAndGlyphs" textLength="20" x="270" y="315.7119">fire</text><text fill="#000000" font-family="sans-serif" font-size="12" font-weight="bold" lengthAdjust="spacingAndGlyphs" textLength="59" x="294" y="315.7119">on_start</text><text fill="#000000" font-family="sans-serif" font-size="12" lengthAdjust="spacingAndGlyphs" textLength="58" x="357" y="315.7119">callbacks</text><rect fill="#FEFECE" height="33.9688" rx="12.5" ry="12.5" style="stroke: #A80036; stroke-width: 1.5;" width="150" x="267.5" y="348.542"/><text fill="#000000" font-family="sans-serif" font-size="12" lengthAdjust="spacingAndGlyphs" textLength="130" x="277.5" y="369.6807">configure controllers</text><rect fill="#FEFECE" height="33.9688" rx="12.5" ry="12.5" style="stroke: #A80036; stroke-width: 1.5;" width="187" x="249" y="402.5107"/><text fill="#000000" font-family="sans-serif" font-size="12" lengthAdjust="spacingAndGlyphs" textLength="167" x="259" y="423.6494">build the graph of services</text><rect fill="#FEFECE" height="33.9688" rx="12.5" ry="12.5" style="stroke: #A80036; stroke-width: 1.5;" width="191" x="247" y="456.4795"/><text fill="#000000" font-family="sans-serif" font-size="12" lengthAdjust="spacingAndGlyphs" textLength="171" x="257" y="477.6182">normalize request handlers</text><rect fill="#FEFECE" height="33.9688" rx="12.5" ry="12.5" style="stroke: #A80036; stroke-width: 1.5;" width="161" x="262" y="510.4482"/><text fill="#000000" font-family="sans-serif" font-size="12" lengthAdjust="spacingAndGlyphs" textLength="141" x="272" y="531.5869">configure middlewares</text><line style="stroke: #000000; stroke-width: 2.0;" x1="241" x2="241" y1="12.7451" y2="856.2607"/><rect fill="#FFF8DC" height="843.5156" style="stroke: #FFF8DC; stroke-width: 1.0;" width="192" x="442" y="12.7451"/><rect fill="#FEFECE" height="33.9688" rx="12.5" ry="12.5" style="stroke: #A80036; stroke-width: 1.5;" width="182" x="448" y="564.417"/><text fill="#000000" font-family="sans-serif" font-size="12" lengthAdjust="spacingAndGlyphs" textLength="20" x="458" y="585.5557">fire</text><text fill="#000000" font-family="sans-serif" font-size="12" font-weight="bold" lengthAdjust="spacingAndGlyphs" textLength="76" x="482" y="585.5557">after_start</text><text fill="#000000" font-family="sans-serif" font-size="12" lengthAdjust="spacingAndGlyphs" textLength="58" x="562" y="585.5557">callbacks</text><line style="stroke: #000000; stroke-width: 2.0;" x1="442" x2="442" y1="12.7451" y2="856.2607"/><rect fill="#AAAAFF" height="843.5156" style="stroke: #AAAAFF; stroke-width: 1.0;" width="163" x="634" y="12.7451"/><rect fill="#FEFECE" height="33.9688" rx="12.5" ry="12.5" style="stroke: #A80036; stroke-width: 1.5;" width="153" x="640" y="618.3857"/><text fill="#000000" font-family="sans-serif" font-size="12" lengthAdjust="spacingAndGlyphs" textLength="133" x="650" y="639.5244">Handle web requests</text><rect fill="#FEFECE" height="33.9688" rx="12.5" ry="12.5" style="stroke: #A80036; stroke-width: 1.5;" width="32" x="700.5" y="672.3545"/><text fill="#000000" font-family="sans-serif" font-size="12" lengthAdjust="spacingAndGlyphs" textLength="12" x="710.5" y="693.4932">...</text><rect fill="#FEFECE" height="33.9688" rx="12.5" ry="12.5" style="stroke: #A80036; stroke-width: 1.5;" width="58" x="687.5" y="726.3232"/><text fill="#000000" font-family="sans-serif" font-size="12" lengthAdjust="spacingAndGlyphs" textLength="38" x="697.5" y="747.4619">stop()</text><line style="stroke: #000000; stroke-width: 2.0;" x1="634" x2="634" y1="12.7451" y2="856.2607"/><rect fill="#FAEBD7" height="843.5156" style="stroke: #FAEBD7; stroke-width: 1.0;" width="172" x="797" y="12.7451"/><rect fill="#FEFECE" height="33.9688" rx="12.5" ry="12.5" style="stroke: #A80036; stroke-width: 1.5;" width="162" x="803" y="780.292"/><text fill="#000000" font-family="sans-serif" font-size="12" lengthAdjust="spacingAndGlyphs" textLength="20" x="813" y="801.4307">fire</text><text fill="#000000" font-family="sans-serif" font-size="12" font-weight="bold" lengthAdjust="spacingAndGlyphs" textLength="56" x="837" y="801.4307">on_stop</text><text fill="#000000" font-family="sans-serif" font-size="12" lengthAdjust="spacingAndGlyphs" textLength="58" x="897" y="801.4307">callbacks</text><ellipse cx="884" cy="845.2607" fill="#FFFFFF" rx="11" ry="11" style="stroke: #000000; stroke-width: 1.0;"/><ellipse cx="884" cy="845.2607" fill="#000000" rx="6" ry="6" style="stroke: #7F7F7F; stroke-width: 1.0;"/><line style="stroke: #000000; stroke-width: 2.0;" x1="797" x2="797" y1="12.7451" y2="856.2607"/><line style="stroke: #000000; stroke-width: 2.0;" x1="969" x2="969" y1="12.7451" y2="856.2607"/><line style="stroke: #A80036; stroke-width: 1.5;" x1="129" x2="129" y1="58.6982" y2="78.6982"/><polygon fill="#A80036" points="125,68.6982,129,78.6982,133,68.6982,129,72.6982" style="stroke: #A80036; stroke-width: 1.0;"/><line style="stroke: #A80036; stroke-width: 1.5;" x1="129" x2="129" y1="112.667" y2="132.667"/><polygon fill="#A80036" points="125,122.667,129,132.667,133,122.667,129,126.667" style="stroke: #A80036; stroke-width: 1.0;"/><line style="stroke: #A80036; stroke-width: 1.5;" x1="129" x2="129" y1="166.6357" y2="186.6357"/><polygon fill="#A80036" points="125,176.6357,129,186.6357,133,176.6357,129,180.6357" style="stroke: #A80036; stroke-width: 1.0;"/><line style="stroke: #A80036; stroke-width: 1.5;" x1="129" x2="129" y1="220.6045" y2="240.6045"/><polygon fill="#A80036" points="125,230.6045,129,240.6045,133,230.6045,129,234.6045" style="stroke: #A80036; stroke-width: 1.0;"/><line style="stroke: #A80036; stroke-width: 1.5;" x1="342.5" x2="342.5" y1="328.542" y2="348.542"/><polygon fill="#A80036" points="338.5,338.542,342.5,348.542,346.5,338.542,342.5,342.542" style="stroke: #A80036; stroke-width: 1.0;"/><line style="stroke: #A80036; stroke-width: 1.5;" x1="342.5" x2="342.5" y1="382.5107" y2="402.5107"/><polygon fill="#A80036" points="338.5,392.5107,342.5,402.5107,346.5,392.5107,342.5,396.5107" style="stroke: #A80036; stroke-width: 1.0;"/><line style="stroke: #A80036; stroke-width: 1.5;" x1="342.5" x2="342.5" y1="436.4795" y2="456.4795"/><polygon fill="#A80036" points="338.5,446.4795,342.5,456.4795,346.5,446.4795,342.5,450.4795" style="stroke: #A80036; stroke-width: 1.0;"/><line style="stroke: #A80036; stroke-width: 1.5;" x1="342.5" x2="342.5" y1="490.4482" y2="510.4482"/><polygon fill="#A80036" points="338.5,500.4482,342.5,510.4482,346.5,500.4482,342.5,504.4482" style="stroke: #A80036; stroke-width: 1.0;"/><line style="stroke: #A80036; stroke-width: 1.5;" x1="716.5" x2="716.5" y1="652.3545" y2="672.3545"/><polygon fill="#A80036" points="712.5,662.3545,716.5,672.3545,720.5,662.3545,716.5,666.3545" style="stroke: #A80036; stroke-width: 1.0;"/><line style="stroke: #A80036; stroke-width: 1.5;" x1="716.5" x2="716.5" y1="706.3232" y2="726.3232"/><polygon fill="#A80036" points="712.5,716.3232,716.5,726.3232,720.5,716.3232,716.5,720.3232" style="stroke: #A80036; stroke-width: 1.0;"/><line style="stroke: #A80036; stroke-width: 1.5;" x1="884" x2="884" y1="814.2607" y2="834.2607"/><polygon fill="#A80036" points="880,824.2607,884,834.2607,888,824.2607,884,828.2607" style="stroke: #A80036; stroke-width: 1.0;"/><line style="stroke: #A80036; stroke-width: 1.5;" x1="129" x2="129" y1="274.5732" y2="279.5732"/><line style="stroke: #A80036; stroke-width: 1.5;" x1="129" x2="342.5" y1="279.5732" y2="279.5732"/><line style="stroke: #A80036; stroke-width: 1.5;" x1="342.5" x2="342.5" y1="279.5732" y2="294.5732"/><polygon fill="#A80036" points="338.5,284.5732,342.5,294.5732,346.5,284.5732,342.5,288.5732" style="stroke: #A80036; stroke-width: 1.0;"/><line style="stroke: #A80036; stroke-width: 1.5;" x1="342.5" x2="342.5" y1="544.417" y2="549.417"/><line style="stroke: #A80036; stroke-width: 1.5;" x1="342.5" x2="539" y1="549.417" y2="549.417"/><line style="stroke: #A80036; stroke-width: 1.5;" x1="539" x2="539" y1="549.417" y2="564.417"/><polygon fill="#A80036" points="535,554.417,539,564.417,543,554.417,539,558.417" style="stroke: #A80036; stroke-width: 1.0;"/><line style="stroke: #A80036; stroke-width: 1.5;" x1="539" x2="539" y1="598.3857" y2="603.3857"/><line style="stroke: #A80036; stroke-width: 1.5;" x1="539" x2="716.5" y1="603.3857" y2="603.3857"/><line style="stroke: #A80036; stroke-width: 1.5;" x1="716.5" x2="716.5" y1="603.3857" y2="618.3857"/><polygon fill="#A80036" points="712.5,608.3857,716.5,618.3857,720.5,608.3857,716.5,612.3857" style="stroke: #A80036; stroke-width: 1.0;"/><line style="stroke: #A80036; stroke-width: 1.5;" x1="716.5" x2="716.5" y1="760.292" y2="765.292"/><line style="stroke: #A80036; stroke-width: 1.5;" x1="716.5" x2="884" y1="765.292" y2="765.292"/><line style="stroke: #A80036; stroke-width: 1.5;" x1="884" x2="884" y1="765.292" y2="780.292"/><polygon fill="#A80036" points="880,770.292,884,780.292,888,770.292,884,774.292" style="stroke: #A80036; stroke-width: 1.0;"/><text fill="#000000" font-family="sans-serif" font-size="18" lengthAdjust="spacingAndGlyphs" textLength="48" x="104" y="29.4531">setup</text><text fill="#000000" font-family="sans-serif" font-size="18" lengthAdjust="spacingAndGlyphs" textLength="71" x="306" y="29.4531">on_start</text><text fill="#000000" font-family="sans-serif" font-size="18" lengthAdjust="spacingAndGlyphs" textLength="91" x="492.5" y="29.4531">after_start</text><text fill="#000000" font-family="sans-serif" font-size="18" lengthAdjust="spacingAndGlyphs" textLength="72" x="679.5" y="29.4531">working</text><text fill="#000000" font-family="sans-serif" font-size="18" lengthAdjust="spacingAndGlyphs" textLength="68" x="849" y="29.4531">on_stop</text><!--MD5=[add0f2aa1bc1f072ba71d31a87f23e61]
@startuml app-life-cycle

skinparam style strictuml
|#Application|setup|
start
:App instantiated;
:Routes configuration;
:Service container configuration;
:start();
|#AntiqueWhite|on_start|
:fire **on_start** callbacks;
:configure controllers;
:build the graph of services;
:normalize request handlers;
:configure middlewares;
|#cornsilk|after_start|
:fire **after_start** callbacks;
|#aaf|working|
:Handle web requests;
:...;
:stop();
|#AntiqueWhite|on_stop|
:fire **on_stop** callbacks;
stop
@enduml

PlantUML version 1.2020.18(Wed Sep 30 21:40:44 CEST 2020)
(GPL source distribution)
Java Runtime: OpenJDK Runtime Environment
JVM: OpenJDK 64-Bit Server VM
Default Encoding: UTF-8
Language: en
Country: US
--></g></svg>